<svg width="4e3" height="4e3" version="1.1" viewBox="0 0 1058.3 1058.3" xmlns="http://www.w3.org/2000/svg">
 <g transform="matrix(.99991 0 0 1 -528.98 -529.3)" fill="none" stroke="#000">
  <g stroke-width=".52919">
   <path d="m264.58 0v2116.7"/>
   <path d="m529.17 0v2116.7"/>
   <path d="m793.75 0v2116.7"/>
   <path d="m1058.3 0v2116.7"/>
   <path d="m1322.9 0v2116.7"/>
   <path d="m1587.5 0v2116.7"/>
   <path d="m1852.1 0v2116.7"/>
  </g>
  <g stroke-width=".52919">
   <path d="m0 264.58h2116.7"/>
   <path d="m0 529.17h2116.7"/>
   <path d="m0 793.75h2116.7"/>
   <path d="m0 1058.3h2116.7"/>
   <path d="m0 1322.9h2116.7"/>
   <path d="m0 1587.5h2116.7"/>
   <path d="m0 1852.1h2116.7"/>
  </g>
  <g stroke-width=".26459">
   <path d="m26.458 0v2116.7"/>
   <path d="m52.917 0v2116.7"/>
   <path d="m79.375 0v2116.7"/>
   <path d="m105.83 0v2116.7"/>
   <path d="m132.29 0v2116.7"/>
   <path d="m158.75 0v2116.7"/>
   <path d="m185.21 0v2116.7"/>
   <path d="m211.67 0v2116.7"/>
   <path d="m238.12 0v2116.7"/>
   <path d="m291.04 0v2116.7"/>
   <path d="m317.5 0v2116.7"/>
   <path d="m343.96 0v2116.7"/>
   <path d="m370.42 0v2116.7"/>
   <path d="m396.88 0v2116.7"/>
   <path d="m423.33 0v2116.7"/>
   <path d="m449.79 0v2116.7"/>
   <path d="m476.25 0v2116.7"/>
   <path d="m502.71 0v2116.7"/>
   <path d="m555.62 0v2116.7"/>
   <path d="m582.08 0v2116.7"/>
   <path d="m608.54 0v2116.7"/>
   <path d="m635 0v2116.7"/>
   <path d="m661.46 0v2116.7"/>
   <path d="m687.92 0v2116.7"/>
   <path d="m714.38 0v2116.7"/>
   <path d="m740.83 0v2116.7"/>
   <path d="m767.29 0v2116.7"/>
   <path d="m820.21 0v2116.7"/>
   <path d="m846.67 0v2116.7"/>
   <path d="m873.12 0v2116.7"/>
   <path d="m899.58 0v2116.7"/>
   <path d="m926.04 0v2116.7"/>
   <path d="m952.5 0v2116.7"/>
   <path d="m978.96 0v2116.7"/>
   <path d="m1005.4 0v2116.7"/>
   <path d="m1031.9 0v2116.7"/>
   <path d="m1084.8 0v2116.7"/>
   <path d="m1111.2 0v2116.7"/>
   <path d="m1137.7 0v2116.7"/>
   <path d="m1164.2 0v2116.7"/>
   <path d="m1190.6 0v2116.7"/>
   <path d="m1217.1 0v2116.7"/>
   <path d="m1243.5 0v2116.7"/>
   <path d="m1270 0v2116.7"/>
   <path d="m1296.5 0v2116.7"/>
   <path d="m1349.4 0v2116.7"/>
   <path d="m1375.8 0v2116.7"/>
   <path d="m1402.3 0v2116.7"/>
   <path d="m1428.8 0v2116.7"/>
   <path d="m1455.2 0v2116.7"/>
   <path d="m1481.7 0v2116.7"/>
   <path d="m1508.1 0v2116.7"/>
   <path d="m1534.6 0v2116.7"/>
   <path d="m1561 0v2116.7"/>
   <path d="m1614 0v2116.7"/>
   <path d="m1640.4 0v2116.7"/>
   <path d="m1666.9 0v2116.7"/>
   <path d="m1693.3 0v2116.7"/>
   <path d="m1719.8 0v2116.7"/>
   <path d="m1746.2 0v2116.7"/>
   <path d="m1772.7 0v2116.7"/>
   <path d="m1799.2 0v2116.7"/>
   <path d="m1825.6 0v2116.7"/>
   <path d="m1878.5 0v2116.7"/>
   <path d="m1905 0v2116.7"/>
   <path d="m1931.5 0v2116.7"/>
   <path d="m1957.9 0v2116.7"/>
   <path d="m1984.4 0v2116.7"/>
   <path d="m2010.8 0v2116.7"/>
   <path d="m2037.3 0v2116.7"/>
   <path d="m2063.8 0v2116.7"/>
   <path d="m2090.2 0v2116.7"/>
  </g>
  <g stroke-width=".079378">
   <path d="m5.2917 0v2116.7"/>
   <path d="m10.583 0v2116.7"/>
   <path d="m15.875 0v2116.7"/>
   <path d="m21.167 0v2116.7"/>
   <path d="m31.75 0v2116.7"/>
   <path d="m37.042 0v2116.7"/>
   <path d="m42.333 0v2116.7"/>
   <path d="m47.625 0v2116.7"/>
   <path d="m58.208 0v2116.7"/>
   <path d="m63.5 0v2116.7"/>
   <path d="m68.792 0v2116.7"/>
   <path d="m74.083 0v2116.7"/>
   <path d="m84.667 0v2116.7"/>
   <path d="m89.958 0v2116.7"/>
   <path d="m95.25 0v2116.7"/>
   <path d="m100.54 0v2116.7"/>
   <path d="m111.12 0v2116.7"/>
   <path d="m116.42 0v2116.7"/>
   <path d="m121.71 0v2116.7"/>
   <path d="m127 0v2116.7"/>
   <path d="m137.58 0v2116.7"/>
   <path d="m142.88 0v2116.7"/>
   <path d="m148.17 0v2116.7"/>
   <path d="m153.46 0v2116.7"/>
   <path d="m164.04 0v2116.7"/>
   <path d="m169.33 0v2116.7"/>
   <path d="m174.62 0v2116.7"/>
   <path d="m179.92 0v2116.7"/>
   <path d="m190.5 0v2116.7"/>
   <path d="m195.79 0v2116.7"/>
   <path d="m201.08 0v2116.7"/>
   <path d="m206.38 0v2116.7"/>
   <path d="m216.96 0v2116.7"/>
   <path d="m222.25 0v2116.7"/>
   <path d="m227.54 0v2116.7"/>
   <path d="m232.83 0v2116.7"/>
   <path d="m243.42 0v2116.7"/>
   <path d="m248.71 0v2116.7"/>
   <path d="m254 0v2116.7"/>
   <path d="m259.29 0v2116.7"/>
   <path d="m269.88 0v2116.7"/>
   <path d="m275.17 0v2116.7"/>
   <path d="m280.46 0v2116.7"/>
   <path d="m285.75 0v2116.7"/>
   <path d="m296.33 0v2116.7"/>
   <path d="m301.62 0v2116.7"/>
   <path d="m306.92 0v2116.7"/>
   <path d="m312.21 0v2116.7"/>
   <path d="m322.79 0v2116.7"/>
   <path d="m328.08 0v2116.7"/>
   <path d="m333.38 0v2116.7"/>
   <path d="m338.67 0v2116.7"/>
   <path d="m349.25 0v2116.7"/>
   <path d="m354.54 0v2116.7"/>
   <path d="m359.83 0v2116.7"/>
   <path d="m365.12 0v2116.7"/>
   <path d="m375.71 0v2116.7"/>
   <path d="m381 0v2116.7"/>
   <path d="m386.29 0v2116.7"/>
   <path d="m391.58 0v2116.7"/>
   <path d="m402.17 0v2116.7"/>
   <path d="m407.46 0v2116.7"/>
   <path d="m412.75 0v2116.7"/>
   <path d="m418.04 0v2116.7"/>
   <path d="m428.62 0v2116.7"/>
   <path d="m433.92 0v2116.7"/>
   <path d="m439.21 0v2116.7"/>
   <path d="m444.5 0v2116.7"/>
   <path d="m455.08 0v2116.7"/>
   <path d="m460.38 0v2116.7"/>
   <path d="m465.67 0v2116.7"/>
   <path d="m470.96 0v2116.7"/>
   <path d="m481.54 0v2116.7"/>
   <path d="m486.83 0v2116.7"/>
   <path d="m492.12 0v2116.7"/>
   <path d="m497.42 0v2116.7"/>
   <path d="m508 0v2116.7"/>
   <path d="m513.29 0v2116.7"/>
   <path d="m518.58 0v2116.7"/>
   <path d="m523.88 0v2116.7"/>
   <path d="m534.46 0v2116.7"/>
   <path d="m539.75 0v2116.7"/>
   <path d="m545.04 0v2116.7"/>
   <path d="m550.33 0v2116.7"/>
   <path d="m560.92 0v2116.7"/>
   <path d="m566.21 0v2116.7"/>
   <path d="m571.5 0v2116.7"/>
   <path d="m576.79 0v2116.7"/>
   <path d="m587.38 0v2116.7"/>
   <path d="m592.67 0v2116.7"/>
   <path d="m597.96 0v2116.7"/>
   <path d="m603.25 0v2116.7"/>
   <path d="m613.83 0v2116.7"/>
   <path d="m619.12 0v2116.7"/>
   <path d="m624.42 0v2116.7"/>
   <path d="m629.71 0v2116.7"/>
   <path d="m640.29 0v2116.7"/>
   <path d="m645.58 0v2116.7"/>
   <path d="m650.88 0v2116.7"/>
   <path d="m656.17 0v2116.7"/>
   <path d="m666.75 0v2116.7"/>
   <path d="m672.04 0v2116.7"/>
   <path d="m677.33 0v2116.7"/>
   <path d="m682.62 0v2116.7"/>
   <path d="m693.21 0v2116.7"/>
   <path d="m698.5 0v2116.7"/>
   <path d="m703.79 0v2116.7"/>
   <path d="m709.08 0v2116.7"/>
   <path d="m719.67 0v2116.7"/>
   <path d="m724.96 0v2116.7"/>
   <path d="m730.25 0v2116.7"/>
   <path d="m735.54 0v2116.7"/>
   <path d="m746.12 0v2116.7"/>
   <path d="m751.42 0v2116.7"/>
   <path d="m756.71 0v2116.7"/>
   <path d="m762 0v2116.7"/>
   <path d="m772.58 0v2116.7"/>
   <path d="m777.88 0v2116.7"/>
   <path d="m783.17 0v2116.7"/>
   <path d="m788.46 0v2116.7"/>
   <path d="m799.04 0v2116.7"/>
   <path d="m804.33 0v2116.7"/>
   <path d="m809.62 0v2116.7"/>
   <path d="m814.92 0v2116.7"/>
   <path d="m825.5 0v2116.7"/>
   <path d="m830.79 0v2116.7"/>
   <path d="m836.08 0v2116.7"/>
   <path d="m841.38 0v2116.7"/>
   <path d="m851.96 0v2116.7"/>
   <path d="m857.25 0v2116.7"/>
   <path d="m862.54 0v2116.7"/>
   <path d="m867.83 0v2116.7"/>
   <path d="m878.42 0v2116.7"/>
   <path d="m883.71 0v2116.7"/>
   <path d="m889 0v2116.7"/>
   <path d="m894.29 0v2116.7"/>
   <path d="m904.88 0v2116.7"/>
   <path d="m910.17 0v2116.7"/>
   <path d="m915.46 0v2116.7"/>
   <path d="m920.75 0v2116.7"/>
   <path d="m931.33 0v2116.7"/>
   <path d="m936.62 0v2116.7"/>
   <path d="m941.92 0v2116.7"/>
   <path d="m947.21 0v2116.7"/>
   <path d="m957.79 0v2116.7"/>
   <path d="m963.08 0v2116.7"/>
   <path d="m968.38 0v2116.7"/>
   <path d="m973.67 0v2116.7"/>
   <path d="m984.25 0v2116.7"/>
   <path d="m989.54 0v2116.7"/>
   <path d="m994.83 0v2116.7"/>
   <path d="m1000.1 0v2116.7"/>
   <path d="m1010.7 0v2116.7"/>
   <path d="m1016 0v2116.7"/>
   <path d="m1021.3 0v2116.7"/>
   <path d="m1026.6 0v2116.7"/>
   <path d="m1037.2 0v2116.7"/>
   <path d="m1042.5 0v2116.7"/>
   <path d="m1047.8 0v2116.7"/>
   <path d="m1053 0v2116.7"/>
   <path d="m1063.6 0v2116.7"/>
   <path d="m1068.9 0v2116.7"/>
   <path d="m1074.2 0v2116.7"/>
   <path d="m1079.5 0v2116.7"/>
   <path d="m1090.1 0v2116.7"/>
   <path d="m1095.4 0v2116.7"/>
   <path d="m1100.7 0v2116.7"/>
   <path d="m1106 0v2116.7"/>
   <path d="m1116.5 0v2116.7"/>
   <path d="m1121.8 0v2116.7"/>
   <path d="m1127.1 0v2116.7"/>
   <path d="m1132.4 0v2116.7"/>
   <path d="m1143 0v2116.7"/>
   <path d="m1148.3 0v2116.7"/>
   <path d="m1153.6 0v2116.7"/>
   <path d="m1158.9 0v2116.7"/>
   <path d="m1169.5 0v2116.7"/>
   <path d="m1174.8 0v2116.7"/>
   <path d="m1180 0v2116.7"/>
   <path d="m1185.3 0v2116.7"/>
   <path d="m1195.9 0v2116.7"/>
   <path d="m1201.2 0v2116.7"/>
   <path d="m1206.5 0v2116.7"/>
   <path d="m1211.8 0v2116.7"/>
   <path d="m1222.4 0v2116.7"/>
   <path d="m1227.7 0v2116.7"/>
   <path d="m1233 0v2116.7"/>
   <path d="m1238.2 0v2116.7"/>
   <path d="m1248.8 0v2116.7"/>
   <path d="m1254.1 0v2116.7"/>
   <path d="m1259.4 0v2116.7"/>
   <path d="m1264.7 0v2116.7"/>
   <path d="m1275.3 0v2116.7"/>
   <path d="m1280.6 0v2116.7"/>
   <path d="m1285.9 0v2116.7"/>
   <path d="m1291.2 0v2116.7"/>
   <path d="m1301.8 0v2116.7"/>
   <path d="m1307 0v2116.7"/>
   <path d="m1312.3 0v2116.7"/>
   <path d="m1317.6 0v2116.7"/>
   <path d="m1328.2 0v2116.7"/>
   <path d="m1333.5 0v2116.7"/>
   <path d="m1338.8 0v2116.7"/>
   <path d="m1344.1 0v2116.7"/>
   <path d="m1354.7 0v2116.7"/>
   <path d="m1360 0v2116.7"/>
   <path d="m1365.2 0v2116.7"/>
   <path d="m1370.5 0v2116.7"/>
   <path d="m1381.1 0v2116.7"/>
   <path d="m1386.4 0v2116.7"/>
   <path d="m1391.7 0v2116.7"/>
   <path d="m1397 0v2116.7"/>
   <path d="m1407.6 0v2116.7"/>
   <path d="m1412.9 0v2116.7"/>
   <path d="m1418.2 0v2116.7"/>
   <path d="m1423.5 0v2116.7"/>
   <path d="m1434 0v2116.7"/>
   <path d="m1439.3 0v2116.7"/>
   <path d="m1444.6 0v2116.7"/>
   <path d="m1449.9 0v2116.7"/>
   <path d="m1460.5 0v2116.7"/>
   <path d="m1465.8 0v2116.7"/>
   <path d="m1471.1 0v2116.7"/>
   <path d="m1476.4 0v2116.7"/>
   <path d="m1487 0v2116.7"/>
   <path d="m1492.2 0v2116.7"/>
   <path d="m1497.5 0v2116.7"/>
   <path d="m1502.8 0v2116.7"/>
   <path d="m1513.4 0v2116.7"/>
   <path d="m1518.7 0v2116.7"/>
   <path d="m1524 0v2116.7"/>
   <path d="m1529.3 0v2116.7"/>
   <path d="m1539.9 0v2116.7"/>
   <path d="m1545.2 0v2116.7"/>
   <path d="m1550.5 0v2116.7"/>
   <path d="m1555.8 0v2116.7"/>
   <path d="m1566.3 0v2116.7"/>
   <path d="m1571.6 0v2116.7"/>
   <path d="m1576.9 0v2116.7"/>
   <path d="m1582.2 0v2116.7"/>
   <path d="m1592.8 0v2116.7"/>
   <path d="m1598.1 0v2116.7"/>
   <path d="m1603.4 0v2116.7"/>
   <path d="m1608.7 0v2116.7"/>
   <path d="m1619.2 0v2116.7"/>
   <path d="m1624.5 0v2116.7"/>
   <path d="m1629.8 0v2116.7"/>
   <path d="m1635.1 0v2116.7"/>
   <path d="m1645.7 0v2116.7"/>
   <path d="m1651 0v2116.7"/>
   <path d="m1656.3 0v2116.7"/>
   <path d="m1661.6 0v2116.7"/>
   <path d="m1672.2 0v2116.7"/>
   <path d="m1677.5 0v2116.7"/>
   <path d="m1682.8 0v2116.7"/>
   <path d="m1688 0v2116.7"/>
   <path d="m1698.6 0v2116.7"/>
   <path d="m1703.9 0v2116.7"/>
   <path d="m1709.2 0v2116.7"/>
   <path d="m1714.5 0v2116.7"/>
   <path d="m1725.1 0v2116.7"/>
   <path d="m1730.4 0v2116.7"/>
   <path d="m1735.7 0v2116.7"/>
   <path d="m1741 0v2116.7"/>
   <path d="m1751.5 0v2116.7"/>
   <path d="m1756.8 0v2116.7"/>
   <path d="m1762.1 0v2116.7"/>
   <path d="m1767.4 0v2116.7"/>
   <path d="m1778 0v2116.7"/>
   <path d="m1783.3 0v2116.7"/>
   <path d="m1788.6 0v2116.7"/>
   <path d="m1793.9 0v2116.7"/>
   <path d="m1804.5 0v2116.7"/>
   <path d="m1809.8 0v2116.7"/>
   <path d="m1815 0v2116.7"/>
   <path d="m1820.3 0v2116.7"/>
   <path d="m1830.9 0v2116.7"/>
   <path d="m1836.2 0v2116.7"/>
   <path d="m1841.5 0v2116.7"/>
   <path d="m1846.8 0v2116.7"/>
   <path d="m1857.4 0v2116.7"/>
   <path d="m1862.7 0v2116.7"/>
   <path d="m1868 0v2116.7"/>
   <path d="m1873.2 0v2116.7"/>
   <path d="m1883.8 0v2116.7"/>
   <path d="m1889.1 0v2116.7"/>
   <path d="m1894.4 0v2116.7"/>
   <path d="m1899.7 0v2116.7"/>
   <path d="m1910.3 0v2116.7"/>
   <path d="m1915.6 0v2116.7"/>
   <path d="m1920.9 0v2116.7"/>
   <path d="m1926.2 0v2116.7"/>
   <path d="m1936.8 0v2116.7"/>
   <path d="m1942 0v2116.7"/>
   <path d="m1947.3 0v2116.7"/>
   <path d="m1952.6 0v2116.7"/>
   <path d="m1963.2 0v2116.7"/>
   <path d="m1968.5 0v2116.7"/>
   <path d="m1973.8 0v2116.7"/>
   <path d="m1979.1 0v2116.7"/>
   <path d="m1989.7 0v2116.7"/>
   <path d="m1995 0v2116.7"/>
   <path d="m2000.2 0v2116.7"/>
   <path d="m2005.5 0v2116.7"/>
   <path d="m2016.1 0v2116.7"/>
   <path d="m2021.4 0v2116.7"/>
   <path d="m2026.7 0v2116.7"/>
   <path d="m2032 0v2116.7"/>
   <path d="m2042.6 0v2116.7"/>
   <path d="m2047.9 0v2116.7"/>
   <path d="m2053.2 0v2116.7"/>
   <path d="m2058.5 0v2116.7"/>
   <path d="m2069 0v2116.7"/>
   <path d="m2074.3 0v2116.7"/>
   <path d="m2079.6 0v2116.7"/>
   <path d="m2084.9 0v2116.7"/>
   <path d="m2095.5 0v2116.7"/>
   <path d="m2100.8 0v2116.7"/>
   <path d="m2106.1 0v2116.7"/>
   <path d="m2111.4 0v2116.7"/>
  </g>
  <g stroke-width=".26459">
   <path d="m0 26.458h2116.7"/>
   <path d="m0 52.917h2116.7"/>
   <path d="m0 79.375h2116.7"/>
   <path d="m0 105.83h2116.7"/>
   <path d="m0 132.29h2116.7"/>
   <path d="m0 158.75h2116.7"/>
   <path d="m0 185.21h2116.7"/>
   <path d="m0 211.67h2116.7"/>
   <path d="m0 238.12h2116.7"/>
   <path d="m0 291.04h2116.7"/>
   <path d="m0 317.5h2116.7"/>
   <path d="m0 343.96h2116.7"/>
   <path d="m0 370.42h2116.7"/>
   <path d="m0 396.88h2116.7"/>
   <path d="m0 423.33h2116.7"/>
   <path d="m0 449.79h2116.7"/>
   <path d="m0 476.25h2116.7"/>
   <path d="m0 502.71h2116.7"/>
   <path d="m0 555.62h2116.7"/>
   <path d="m0 582.08h2116.7"/>
   <path d="m0 608.54h2116.7"/>
   <path d="m0 635h2116.7"/>
   <path d="m0 661.46h2116.7"/>
   <path d="m0 687.92h2116.7"/>
   <path d="m0 714.38h2116.7"/>
   <path d="m0 740.83h2116.7"/>
   <path d="m0 767.29h2116.7"/>
   <path d="m0 820.21h2116.7"/>
   <path d="m0 846.67h2116.7"/>
   <path d="m0 873.12h2116.7"/>
   <path d="m0 899.58h2116.7"/>
   <path d="m0 926.04h2116.7"/>
   <path d="m0 952.5h2116.7"/>
   <path d="m0 978.96h2116.7"/>
   <path d="m0 1005.4h2116.7"/>
   <path d="m0 1031.9h2116.7"/>
   <path d="m0 1084.8h2116.7"/>
   <path d="m0 1111.2h2116.7"/>
   <path d="m0 1137.7h2116.7"/>
   <path d="m0 1164.2h2116.7"/>
   <path d="m0 1190.6h2116.7"/>
   <path d="m0 1217.1h2116.7"/>
   <path d="m0 1243.5h2116.7"/>
   <path d="m0 1270h2116.7"/>
   <path d="m0 1296.5h2116.7"/>
   <path d="m0 1349.4h2116.7"/>
   <path d="m0 1375.8h2116.7"/>
   <path d="m0 1402.3h2116.7"/>
   <path d="m0 1428.8h2116.7"/>
   <path d="m0 1455.2h2116.7"/>
   <path d="m0 1481.7h2116.7"/>
   <path d="m0 1508.1h2116.7"/>
   <path d="m0 1534.6h2116.7"/>
   <path d="m0 1561h2116.7"/>
   <path d="m0 1614h2116.7"/>
   <path d="m0 1640.4h2116.7"/>
   <path d="m0 1666.9h2116.7"/>
   <path d="m0 1693.3h2116.7"/>
   <path d="m0 1719.8h2116.7"/>
   <path d="m0 1746.2h2116.7"/>
   <path d="m0 1772.7h2116.7"/>
   <path d="m0 1799.2h2116.7"/>
   <path d="m0 1825.6h2116.7"/>
   <path d="m0 1878.5h2116.7"/>
   <path d="m0 1905h2116.7"/>
   <path d="m0 1931.5h2116.7"/>
   <path d="m0 1957.9h2116.7"/>
   <path d="m0 1984.4h2116.7"/>
   <path d="m0 2010.8h2116.7"/>
   <path d="m0 2037.3h2116.7"/>
   <path d="m0 2063.8h2116.7"/>
   <path d="m0 2090.2h2116.7"/>
  </g>
  <g stroke-width=".079378">
   <path d="m0 5.2917h2116.7"/>
   <path d="m0 10.583h2116.7"/>
   <path d="m0 15.875h2116.7"/>
   <path d="m0 21.167h2116.7"/>
   <path d="m0 31.75h2116.7"/>
   <path d="m0 37.042h2116.7"/>
   <path d="m0 42.333h2116.7"/>
   <path d="m0 47.625h2116.7"/>
   <path d="m0 58.208h2116.7"/>
   <path d="m0 63.5h2116.7"/>
   <path d="m0 68.792h2116.7"/>
   <path d="m0 74.083h2116.7"/>
   <path d="m0 84.667h2116.7"/>
   <path d="m0 89.958h2116.7"/>
   <path d="m0 95.25h2116.7"/>
   <path d="m0 100.54h2116.7"/>
   <path d="m0 111.12h2116.7"/>
   <path d="m0 116.42h2116.7"/>
   <path d="m0 121.71h2116.7"/>
   <path d="m0 127h2116.7"/>
   <path d="m0 137.58h2116.7"/>
   <path d="m0 142.88h2116.7"/>
   <path d="m0 148.17h2116.7"/>
   <path d="m0 153.46h2116.7"/>
   <path d="m0 164.04h2116.7"/>
   <path d="m0 169.33h2116.7"/>
   <path d="m0 174.62h2116.7"/>
   <path d="m0 179.92h2116.7"/>
   <path d="m0 190.5h2116.7"/>
   <path d="m0 195.79h2116.7"/>
   <path d="m0 201.08h2116.7"/>
   <path d="m0 206.38h2116.7"/>
   <path d="m0 216.96h2116.7"/>
   <path d="m0 222.25h2116.7"/>
   <path d="m0 227.54h2116.7"/>
   <path d="m0 232.83h2116.7"/>
   <path d="m0 243.42h2116.7"/>
   <path d="m0 248.71h2116.7"/>
   <path d="m0 254h2116.7"/>
   <path d="m0 259.29h2116.7"/>
   <path d="m0 269.88h2116.7"/>
   <path d="m0 275.17h2116.7"/>
   <path d="m0 280.46h2116.7"/>
   <path d="m0 285.75h2116.7"/>
   <path d="m0 296.33h2116.7"/>
   <path d="m0 301.62h2116.7"/>
   <path d="m0 306.92h2116.7"/>
   <path d="m0 312.21h2116.7"/>
   <path d="m0 322.79h2116.7"/>
   <path d="m0 328.08h2116.7"/>
   <path d="m0 333.38h2116.7"/>
   <path d="m0 338.67h2116.7"/>
   <path d="m0 349.25h2116.7"/>
   <path d="m0 354.54h2116.7"/>
   <path d="m0 359.83h2116.7"/>
   <path d="m0 365.12h2116.7"/>
   <path d="m0 375.71h2116.7"/>
   <path d="m0 381h2116.7"/>
   <path d="m0 386.29h2116.7"/>
   <path d="m0 391.58h2116.7"/>
   <path d="m0 402.17h2116.7"/>
   <path d="m0 407.46h2116.7"/>
   <path d="m0 412.75h2116.7"/>
   <path d="m0 418.04h2116.7"/>
   <path d="m0 428.62h2116.7"/>
   <path d="m0 433.92h2116.7"/>
   <path d="m0 439.21h2116.7"/>
   <path d="m0 444.5h2116.7"/>
   <path d="m0 455.08h2116.7"/>
   <path d="m0 460.38h2116.7"/>
   <path d="m0 465.67h2116.7"/>
   <path d="m0 470.96h2116.7"/>
   <path d="m0 481.54h2116.7"/>
   <path d="m0 486.83h2116.7"/>
   <path d="m0 492.12h2116.7"/>
   <path d="m0 497.42h2116.7"/>
   <path d="m0 508h2116.7"/>
   <path d="m0 513.29h2116.7"/>
   <path d="m0 518.58h2116.7"/>
   <path d="m0 523.88h2116.7"/>
   <path d="m0 534.46h2116.7"/>
   <path d="m0 539.75h2116.7"/>
   <path d="m0 545.04h2116.7"/>
   <path d="m0 550.33h2116.7"/>
   <path d="m0 560.92h2116.7"/>
   <path d="m0 566.21h2116.7"/>
   <path d="m0 571.5h2116.7"/>
   <path d="m0 576.79h2116.7"/>
   <path d="m0 587.38h2116.7"/>
   <path d="m0 592.67h2116.7"/>
   <path d="m0 597.96h2116.7"/>
   <path d="m0 603.25h2116.7"/>
   <path d="m0 613.83h2116.7"/>
   <path d="m0 619.12h2116.7"/>
   <path d="m0 624.42h2116.7"/>
   <path d="m0 629.71h2116.7"/>
   <path d="m0 640.29h2116.7"/>
   <path d="m0 645.58h2116.7"/>
   <path d="m0 650.88h2116.7"/>
   <path d="m0 656.17h2116.7"/>
   <path d="m0 666.75h2116.7"/>
   <path d="m0 672.04h2116.7"/>
   <path d="m0 677.33h2116.7"/>
   <path d="m0 682.62h2116.7"/>
   <path d="m0 693.21h2116.7"/>
   <path d="m0 698.5h2116.7"/>
   <path d="m0 703.79h2116.7"/>
   <path d="m0 709.08h2116.7"/>
   <path d="m0 719.67h2116.7"/>
   <path d="m0 724.96h2116.7"/>
   <path d="m0 730.25h2116.7"/>
   <path d="m0 735.54h2116.7"/>
   <path d="m0 746.12h2116.7"/>
   <path d="m0 751.42h2116.7"/>
   <path d="m0 756.71h2116.7"/>
   <path d="m0 762h2116.7"/>
   <path d="m0 772.58h2116.7"/>
   <path d="m0 777.88h2116.7"/>
   <path d="m0 783.17h2116.7"/>
   <path d="m0 788.46h2116.7"/>
   <path d="m0 799.04h2116.7"/>
   <path d="m0 804.33h2116.7"/>
   <path d="m0 809.62h2116.7"/>
   <path d="m0 814.92h2116.7"/>
   <path d="m0 825.5h2116.7"/>
   <path d="m0 830.79h2116.7"/>
   <path d="m0 836.08h2116.7"/>
   <path d="m0 841.38h2116.7"/>
   <path d="m0 851.96h2116.7"/>
   <path d="m0 857.25h2116.7"/>
   <path d="m0 862.54h2116.7"/>
   <path d="m0 867.83h2116.7"/>
   <path d="m0 878.42h2116.7"/>
   <path d="m0 883.71h2116.7"/>
   <path d="m0 889h2116.7"/>
   <path d="m0 894.29h2116.7"/>
   <path d="m0 904.88h2116.7"/>
   <path d="m0 910.17h2116.7"/>
   <path d="m0 915.46h2116.7"/>
   <path d="m0 920.75h2116.7"/>
   <path d="m0 931.33h2116.7"/>
   <path d="m0 936.62h2116.7"/>
   <path d="m0 941.92h2116.7"/>
   <path d="m0 947.21h2116.7"/>
   <path d="m0 957.79h2116.7"/>
   <path d="m0 963.08h2116.7"/>
   <path d="m0 968.38h2116.7"/>
   <path d="m0 973.67h2116.7"/>
   <path d="m0 984.25h2116.7"/>
   <path d="m0 989.54h2116.7"/>
   <path d="m0 994.83h2116.7"/>
   <path d="m0 1000.1h2116.7"/>
   <path d="m0 1010.7h2116.7"/>
   <path d="m0 1016h2116.7"/>
   <path d="m0 1021.3h2116.7"/>
   <path d="m0 1026.6h2116.7"/>
   <path d="m0 1037.2h2116.7"/>
   <path d="m0 1042.5h2116.7"/>
   <path d="m0 1047.8h2116.7"/>
   <path d="m0 1053h2116.7"/>
   <path d="m0 1063.6h2116.7"/>
   <path d="m0 1068.9h2116.7"/>
   <path d="m0 1074.2h2116.7"/>
   <path d="m0 1079.5h2116.7"/>
   <path d="m0 1090.1h2116.7"/>
   <path d="m0 1095.4h2116.7"/>
   <path d="m0 1100.7h2116.7"/>
   <path d="m0 1106h2116.7"/>
   <path d="m0 1116.5h2116.7"/>
   <path d="m0 1121.8h2116.7"/>
   <path d="m0 1127.1h2116.7"/>
   <path d="m0 1132.4h2116.7"/>
   <path d="m0 1143h2116.7"/>
   <path d="m0 1148.3h2116.7"/>
   <path d="m0 1153.6h2116.7"/>
   <path d="m0 1158.9h2116.7"/>
   <path d="m0 1169.5h2116.7"/>
   <path d="m0 1174.8h2116.7"/>
   <path d="m0 1180h2116.7"/>
   <path d="m0 1185.3h2116.7"/>
   <path d="m0 1195.9h2116.7"/>
   <path d="m0 1201.2h2116.7"/>
   <path d="m0 1206.5h2116.7"/>
   <path d="m0 1211.8h2116.7"/>
   <path d="m0 1222.4h2116.7"/>
   <path d="m0 1227.7h2116.7"/>
   <path d="m0 1233h2116.7"/>
   <path d="m0 1238.2h2116.7"/>
   <path d="m0 1248.8h2116.7"/>
   <path d="m0 1254.1h2116.7"/>
   <path d="m0 1259.4h2116.7"/>
   <path d="m0 1264.7h2116.7"/>
   <path d="m0 1275.3h2116.7"/>
   <path d="m0 1280.6h2116.7"/>
   <path d="m0 1285.9h2116.7"/>
   <path d="m0 1291.2h2116.7"/>
   <path d="m0 1301.8h2116.7"/>
   <path d="m0 1307h2116.7"/>
   <path d="m0 1312.3h2116.7"/>
   <path d="m0 1317.6h2116.7"/>
   <path d="m0 1328.2h2116.7"/>
   <path d="m0 1333.5h2116.7"/>
   <path d="m0 1338.8h2116.7"/>
   <path d="m0 1344.1h2116.7"/>
   <path d="m0 1354.7h2116.7"/>
   <path d="m0 1360h2116.7"/>
   <path d="m0 1365.2h2116.7"/>
   <path d="m0 1370.5h2116.7"/>
   <path d="m0 1381.1h2116.7"/>
   <path d="m0 1386.4h2116.7"/>
   <path d="m0 1391.7h2116.7"/>
   <path d="m0 1397h2116.7"/>
   <path d="m0 1407.6h2116.7"/>
   <path d="m0 1412.9h2116.7"/>
   <path d="m0 1418.2h2116.7"/>
   <path d="m0 1423.5h2116.7"/>
   <path d="m0 1434h2116.7"/>
   <path d="m0 1439.3h2116.7"/>
   <path d="m0 1444.6h2116.7"/>
   <path d="m0 1449.9h2116.7"/>
   <path d="m0 1460.5h2116.7"/>
   <path d="m0 1465.8h2116.7"/>
   <path d="m0 1471.1h2116.7"/>
   <path d="m0 1476.4h2116.7"/>
   <path d="m0 1487h2116.7"/>
   <path d="m0 1492.2h2116.7"/>
   <path d="m0 1497.5h2116.7"/>
   <path d="m0 1502.8h2116.7"/>
   <path d="m0 1513.4h2116.7"/>
   <path d="m0 1518.7h2116.7"/>
   <path d="m0 1524h2116.7"/>
   <path d="m0 1529.3h2116.7"/>
   <path d="m0 1539.9h2116.7"/>
   <path d="m0 1545.2h2116.7"/>
   <path d="m0 1550.5h2116.7"/>
   <path d="m0 1555.8h2116.7"/>
   <path d="m0 1566.3h2116.7"/>
   <path d="m0 1571.6h2116.7"/>
   <path d="m0 1576.9h2116.7"/>
   <path d="m0 1582.2h2116.7"/>
   <path d="m0 1592.8h2116.7"/>
   <path d="m0 1598.1h2116.7"/>
   <path d="m0 1603.4h2116.7"/>
   <path d="m0 1608.7h2116.7"/>
   <path d="m0 1619.2h2116.7"/>
   <path d="m0 1624.5h2116.7"/>
   <path d="m0 1629.8h2116.7"/>
   <path d="m0 1635.1h2116.7"/>
   <path d="m0 1645.7h2116.7"/>
   <path d="m0 1651h2116.7"/>
   <path d="m0 1656.3h2116.7"/>
   <path d="m0 1661.6h2116.7"/>
   <path d="m0 1672.2h2116.7"/>
   <path d="m0 1677.5h2116.7"/>
   <path d="m0 1682.8h2116.7"/>
   <path d="m0 1688h2116.7"/>
   <path d="m0 1698.6h2116.7"/>
   <path d="m0 1703.9h2116.7"/>
   <path d="m0 1709.2h2116.7"/>
   <path d="m0 1714.5h2116.7"/>
   <path d="m0 1725.1h2116.7"/>
   <path d="m0 1730.4h2116.7"/>
   <path d="m0 1735.7h2116.7"/>
   <path d="m0 1741h2116.7"/>
   <path d="m0 1751.5h2116.7"/>
   <path d="m0 1756.8h2116.7"/>
   <path d="m0 1762.1h2116.7"/>
   <path d="m0 1767.4h2116.7"/>
   <path d="m0 1778h2116.7"/>
   <path d="m0 1783.3h2116.7"/>
   <path d="m0 1788.6h2116.7"/>
   <path d="m0 1793.9h2116.7"/>
   <path d="m0 1804.5h2116.7"/>
   <path d="m0 1809.8h2116.7"/>
   <path d="m0 1815h2116.7"/>
   <path d="m0 1820.3h2116.7"/>
   <path d="m0 1830.9h2116.7"/>
   <path d="m0 1836.2h2116.7"/>
   <path d="m0 1841.5h2116.7"/>
   <path d="m0 1846.8h2116.7"/>
   <path d="m0 1857.4h2116.7"/>
   <path d="m0 1862.7h2116.7"/>
   <path d="m0 1868h2116.7"/>
   <path d="m0 1873.2h2116.7"/>
   <path d="m0 1883.8h2116.7"/>
   <path d="m0 1889.1h2116.7"/>
   <path d="m0 1894.4h2116.7"/>
   <path d="m0 1899.7h2116.7"/>
   <path d="m0 1910.3h2116.7"/>
   <path d="m0 1915.6h2116.7"/>
   <path d="m0 1920.9h2116.7"/>
   <path d="m0 1926.2h2116.7"/>
   <path d="m0 1936.8h2116.7"/>
   <path d="m0 1942h2116.7"/>
   <path d="m0 1947.3h2116.7"/>
   <path d="m0 1952.6h2116.7"/>
   <path d="m0 1963.2h2116.7"/>
   <path d="m0 1968.5h2116.7"/>
   <path d="m0 1973.8h2116.7"/>
   <path d="m0 1979.1h2116.7"/>
   <path d="m0 1989.7h2116.7"/>
   <path d="m0 1995h2116.7"/>
   <path d="m0 2000.2h2116.7"/>
   <path d="m0 2005.5h2116.7"/>
   <path d="m0 2016.1h2116.7"/>
   <path d="m0 2021.4h2116.7"/>
   <path d="m0 2026.7h2116.7"/>
   <path d="m0 2032h2116.7"/>
   <path d="m0 2042.6h2116.7"/>
   <path d="m0 2047.9h2116.7"/>
   <path d="m0 2053.2h2116.7"/>
   <path d="m0 2058.5h2116.7"/>
   <path d="m0 2069h2116.7"/>
   <path d="m0 2074.3h2116.7"/>
   <path d="m0 2079.6h2116.7"/>
   <path d="m0 2084.9h2116.7"/>
   <path d="m0 2095.5h2116.7"/>
   <path d="m0 2100.8h2116.7"/>
   <path d="m0 2106.1h2116.7"/>
   <path d="m0 2111.4h2116.7"/>
  </g>
  <rect width="2116.7" height="2116.7" stroke-width=".26459"/>
 </g>
 <path d="m529.26 1587.4v-2116.7" fill="none" stroke="#000" stroke-width="10"/>
 <path d="m-529.17 529.03h2116.7" fill="none" stroke="#000" stroke-width="10"/>
</svg>
